<svg id="图层_1" data-name="图层 1" xmlns="http://www.w3.org/2000/svg" xmlns:xlink="http://www.w3.org/1999/xlink" viewBox="0 0 1872.58 364.79"><defs><style>.cls-1{fill:url(#未命名的渐变_2);}.cls-2{fill:url(#未命名的渐变_2-2);}.cls-3{fill:#ddb1ff;}.cls-4{fill:#fff;}</style><linearGradient id="未命名的渐变_2" x1="486.61" y1="395.08" x2="497.28" y2="394.76" gradientTransform="matrix(33.33, 0, 0, -33.33, -16199, 13367.67)" gradientUnits="userSpaceOnUse"><stop offset="0" stop-color="#3239dc"/><stop offset="1" stop-color="#5a38e2"/></linearGradient><linearGradient id="未命名的渐变_2-2" x1="498.94" y1="395.13" x2="503.44" y2="395.03" xlink:href="#未命名的渐变_2"/></defs><path class="cls-1" d="M155.58,23.18c-94.43,0-127.09,217.63-134.19,276.53-.61,5.05,5.63,7.67,9.44,4.26,186-167.13,272.18,84,346,84-41.33,0-71.6-115.48-109.63-216.53C237.63,93,203.38,23.18,155.58,23.18Z" transform="translate(-21.34 -23.18)"/><path class="cls-2" d="M572.53,298.08c3.57,4.32,10.61,1.47,9.74-4.07C573.76,240.18,545.76,97.78,487,97.78c-36.16,0-45.37,72.08-54.63,144.41l-.05.23c79,0,109.05,17.72,140.26,55.63Z" transform="translate(-21.34 -23.18)"/><path class="cls-3" d="M267.18,171.45c38,101,68.32,216.53,109.63,216.53,36.76,0,46.16-72.86,55.46-145.54l.05-.23c9.26-72.35,18.47-144.46,54.61-144.46-72.47,0-110.1,262.93-219.73,73.7Z" transform="translate(-21.34 -23.18)"/><path class="cls-4" d="M829.18,258.28,854.68,100h47.25L867.68,315.28H806.43l-66.75-171-22.5,171h-46.5L699.18,99h43.5q23,0,34.75,23.5,9,23,20.75,53.75t20.75,54.88q9,24.12,10,27.12Z" transform="translate(-21.34 -23.18)"/><path class="cls-4" d="M1063.68,165.53q19.24,21,18,54.5-1.76,42-26.5,68.25t-61.75,26.25q-32,0-52-21.75t-18.5-55.25q1.5-40.25,27-66.75,25.76-26.49,62.75-26.5Q1044.44,144.28,1063.68,165.53Zm-34.5,96.5q14-16,15-39,.75-18.24-9.25-30-10.25-12-26.5-12-18.75,0-33,16-14.25,15.75-15,38-.75,19,9,31,10,11.76,26.25,11.75Q1014.93,277.78,1029.18,262Z" transform="translate(-21.34 -23.18)"/><path class="cls-4" d="M1229.93,165.28l7.75-56.25a33.4,33.4,0,0,1,11.38-20.62,32.35,32.35,0,0,1,21.87-8.13h13.25l-32.75,234.25h-21.25a15.34,15.34,0,0,1-12-5.37,16.19,16.19,0,0,1-4-12.88l1-7.25q-3,2.75-5.5,5.25a71.42,71.42,0,0,1-18.25,14.5,66.06,66.06,0,0,1-29.5,6.75q-17.25,0-28.25-6.5a46,46,0,0,1-17-18.25q-6-11.25-7.25-26.5a139.41,139.41,0,0,1,1.25-32,149.75,149.75,0,0,1,9.25-36.25,100.46,100.46,0,0,1,16.5-27.5,67.62,67.62,0,0,1,23.25-17.5,68.39,68.39,0,0,1,29.5-6.25q12.75,0,22.25,5.25A67.28,67.28,0,0,1,1229.93,165.28ZM1217.18,255l7.25-50.25q-7.76-11.49-15.25-17.75a27,27,0,0,0-31.5-1.75,33.84,33.84,0,0,0-11.25,11,67.48,67.48,0,0,0-7.75,15.5,89.21,89.21,0,0,0-4.25,17.5,119,119,0,0,0-1,18.5,54.3,54.3,0,0,0,2.75,16.25,24.85,24.85,0,0,0,7.75,11.25q5,4.26,14,4.25a32.38,32.38,0,0,0,8.75-1.25,36.21,36.21,0,0,0,9-4.25,59.51,59.51,0,0,0,10-7.5Q1210.93,261.79,1217.18,255Z" transform="translate(-21.34 -23.18)"/><path class="cls-4" d="M1409.93,281.28a34.74,34.74,0,0,0,6.25-1.5,21.24,21.24,0,0,1,14.38,1.5,20.68,20.68,0,0,1,9.87,10.5l4.25,9.5c-1.17.66-2.83,1.5-5,2.5h-.5l-8.75,3.38a77.48,77.48,0,0,1-9.75,3.12,174.32,174.32,0,0,1-18,3.5,141.59,141.59,0,0,1-21,1.5q-20.25,0-34.75-5.25-14.51-5-23.25-15.25-8.75-10.5-11.5-26.25t.25-37a122.34,122.34,0,0,1,10.5-36.25,91.76,91.76,0,0,1,19-27.5,79.41,79.41,0,0,1,26.75-17.25,93.6,93.6,0,0,1,33.25-5.75q18.75,0,31.5,5.5a47.1,47.1,0,0,1,20,15.5,54.78,54.78,0,0,1,9.5,23.5,103.37,103.37,0,0,1-.25,29.5l-.75,6.75q-1.25,7.75-5.25,11.5a14.06,14.06,0,0,1-10,3.75h-92a56.54,56.54,0,0,0-.25,17.5,30.47,30.47,0,0,0,5.25,13.5,25.44,25.44,0,0,0,11.75,8.25q7.5,3,18.5,3A102.37,102.37,0,0,0,1409.93,281.28Zm-47-83a71.44,71.44,0,0,0-4.5,15h63.75q3-18-3.25-28.25t-22.5-10.25a34.19,34.19,0,0,0-14.5,3,36.82,36.82,0,0,0-11,8.25A48.74,48.74,0,0,0,1362.93,198.28Z" transform="translate(-21.34 -23.18)"/><path class="cls-4" d="M1601.18,315.78,1628.93,119a22.35,22.35,0,0,1,7.87-14.37A23.05,23.05,0,0,1,1652.18,99h26.25l-27.25,193.25a26.81,26.81,0,0,1-9.13,16.88,26.41,26.41,0,0,1-17.87,6.62Z" transform="translate(-21.34 -23.18)"/><path class="cls-4" d="M1832.68,119.28q14.49-20,36.5-20h24.75l-71.5,106.5,42.5,110h-36.75q-13.26,0-20-14l-24.75-67.25-48.25,73.25q-5.76,8-14.5,8h-39.25l74.75-109.5-42.25-107h31q18.49,0,27.75,19L1795.43,177Z" transform="translate(-21.34 -23.18)"/></svg>